<svg width="1867" height="841" viewBox="0 0 1867 841" fill="none" xmlns="http://www.w3.org/2000/svg">
<path opacity="0.4" fill-rule="evenodd" clip-rule="evenodd" d="M42.5641 534.91C6.68236 586.893 -7.06146 636.692 5.63547 681.21C18.3324 725.728 56.3072 760.888 114.265 786.31C172.219 811.729 250.084 827.378 342.408 832.906C527.053 843.962 769.421 814.534 1025.74 741.985C1282.05 669.435 1503.75 567.512 1654.97 461.39C1730.58 408.327 1788.56 354.23 1824.44 302.251C1860.32 250.269 1874.06 200.47 1861.37 155.952C1848.67 111.433 1810.69 76.2733 1752.74 50.8518C1694.78 25.4321 1616.92 9.7837 1524.59 4.25544C1339.95 -6.80082 1097.58 22.6274 841.263 95.1769C584.947 167.726 363.254 269.649 212.03 375.772C136.416 428.835 78.4434 482.931 42.5641 534.91ZM211.454 374.954C362.792 268.751 584.594 166.787 840.989 94.2152C1097.38 21.6435 1339.87 -7.80684 1524.65 3.25775C1617.04 8.7899 1695.03 24.4518 1753.14 49.9368C1811.24 75.4201 1849.52 110.759 1862.33 155.679C1875.14 200.599 1861.23 250.711 1825.26 302.82C1789.29 354.932 1731.21 409.108 1655.55 462.208C1504.21 568.41 1282.41 670.374 1026.01 742.946C769.617 815.518 527.134 844.968 342.35 833.904C249.961 828.372 171.967 812.71 113.864 787.225C55.7654 761.741 17.4848 726.402 4.67327 681.482C-8.1383 636.562 5.77116 586.451 41.7401 534.342C77.7115 482.23 135.787 428.054 211.454 374.954Z" fill="url(#paint0_linear)"/>
<ellipse cx="616.137" cy="821.088" rx="20.0045" ry="19.9121" fill="#4A99BF"/>
<path opacity="0.4" fill-rule="evenodd" clip-rule="evenodd" d="M85.6565 515.725C51.2758 564.716 37.9954 611.561 49.9095 653.335C61.8236 695.108 97.8451 727.998 152.948 751.662C208.046 775.324 282.147 789.726 370.064 794.561C545.893 804.23 776.864 775.626 1021.29 706.441C1265.72 637.257 1477.28 540.603 1621.74 440.278C1693.97 390.114 1749.4 339.049 1783.78 290.061C1818.16 241.07 1831.44 194.225 1819.52 152.451C1807.61 110.678 1771.59 77.7876 1716.49 54.1238C1661.39 30.462 1587.29 16.06 1499.37 11.2253C1323.54 1.55628 1092.57 30.1601 848.142 99.3444C603.715 168.529 392.153 265.182 247.695 365.508C175.464 415.671 120.034 466.737 85.6565 515.725ZM247.123 364.687C391.693 264.283 603.364 167.589 847.868 98.3827C1092.37 29.1766 1323.46 0.55077 1499.42 10.2274C1587.4 15.0655 1661.63 29.4802 1716.88 53.2057C1772.12 76.9291 1808.46 109.997 1820.49 152.179C1832.52 194.361 1819.06 241.521 1784.6 290.636C1750.13 339.755 1694.59 390.899 1622.31 441.099C1477.74 541.503 1266.07 638.197 1021.57 707.403C777.061 776.609 545.977 805.235 370.011 795.558C282.031 790.72 207.8 776.306 152.554 752.58C97.3125 728.857 60.9779 695.789 48.9473 653.607C36.9167 611.425 50.3696 564.265 84.8369 515.15C119.307 466.03 174.84 414.887 247.123 364.687Z" fill="url(#paint1_linear)"/>
<ellipse cx="197.044" cy="764.338" rx="20.0044" ry="19.9121" fill="#3B68A9"/>
<path opacity="0.4" fill-rule="evenodd" clip-rule="evenodd" d="M128.826 496.519C95.9503 542.519 83.1361 586.409 94.2673 625.437C105.399 664.466 139.464 695.086 191.707 716.994C243.945 738.899 314.278 752.056 397.779 756.2C564.777 764.486 784.33 736.712 1016.84 670.9C1249.36 605.087 1450.77 513.708 1588.45 419.185C1657.29 371.922 1710.17 323.889 1743.04 277.894C1775.92 231.894 1788.73 188.004 1777.6 148.976C1766.47 109.948 1732.4 79.3268 1680.16 57.4193C1627.92 35.5142 1557.59 22.3568 1474.09 18.2136C1307.09 9.92747 1087.54 37.701 855.021 103.513C622.507 169.326 421.095 260.705 283.419 355.228C214.579 402.491 161.698 450.524 128.826 496.519ZM282.851 354.404C420.639 259.804 622.157 168.386 854.747 102.552C1087.34 36.7179 1307 8.92253 1474.13 17.2153C1557.7 21.3616 1628.16 34.5307 1680.54 56.4978C1732.92 78.4624 1767.31 109.26 1778.56 148.704C1789.81 188.148 1776.82 232.356 1743.85 278.476C1710.89 324.601 1657.91 372.711 1589.01 420.009C1451.23 514.609 1249.71 606.028 1017.12 671.861C784.528 737.695 564.864 765.491 397.731 757.198C314.167 753.052 243.707 739.883 191.321 717.915C138.942 695.951 104.555 665.154 93.3051 625.71C82.0554 586.266 95.0499 542.057 128.011 495.937C160.976 449.812 213.96 401.702 282.851 354.404Z" fill="url(#paint2_linear)"/>
<ellipse cx="372.083" cy="752.393" rx="12.0027" ry="11.9473" fill="#73CFD0"/>
<defs>
<linearGradient id="paint0_linear" x1="-23.0514" y1="671.533" x2="1352.09" y2="152.798" gradientUnits="userSpaceOnUse">
<stop stop-color="#44F3FE" stop-opacity="0.8"/>
<stop offset="1" stop-color="#775AED" stop-opacity="0.2"/>
</linearGradient>
<linearGradient id="paint1_linear" x1="22.6475" y1="641.86" x2="1330.79" y2="143.806" gradientUnits="userSpaceOnUse">
<stop stop-color="#44F3FE" stop-opacity="0.8"/>
<stop offset="1" stop-color="#775AED" stop-opacity="0.2"/>
</linearGradient>
<linearGradient id="paint2_linear" x1="68.4295" y1="612.194" x2="1309.42" y2="134.873" gradientUnits="userSpaceOnUse">
<stop stop-color="#44F3FE" stop-opacity="0.8"/>
<stop offset="1" stop-color="#775AED" stop-opacity="0.2"/>
</linearGradient>
</defs>
</svg>
