<svg width="64" height="64" viewBox="0 0 64 64" fill="none" xmlns="http://www.w3.org/2000/svg">
<path d="M34 31L44 21" stroke="#999999" stroke-width="2"/>
<path d="M30.5 40C27.4691 40 25 37.5309 25 34.5C25 31.4691 27.4691 29 30.5 29C33.5309 29 36 31.4691 36 34.5C36 37.5309 33.5309 40 30.5 40Z" stroke="#999999" stroke-width="2"/>
<path d="M32.7778 9H5V59H55V31.2222" stroke="#999999" stroke-width="2"/>
<path d="M49 23C44.5909 23 41 19.4091 41 15C41 10.5909 44.5909 7 49 7C53.4091 7 57 10.5909 57 15C57 19.4091 53.4091 23 49 23Z" stroke="#44FFB2" stroke-width="2"/>
</svg>
