<svg width="116" height="36" viewBox="0 0 116 36" fill="none" xmlns="http://www.w3.org/2000/svg">
<rect width="116" height="36" rx="4" fill="white" fill-opacity="0.05"/>
<rect x="0.5" y="0.5" width="115" height="35" rx="3.5" stroke="white" stroke-opacity="0.1"/>
<path d="M12.1553 23V13.0469H14.9648C15.8307 13.0469 16.5964 13.2383 17.2617 13.6211C17.9271 14.0039 18.4398 14.5485 18.7998 15.2549C19.1644 15.9613 19.349 16.7725 19.3535 17.6885V18.3242C19.3535 19.263 19.1712 20.0856 18.8066 20.792C18.4466 21.4984 17.9294 22.0407 17.2549 22.4189C16.585 22.7972 15.8034 22.9909 14.9102 23H12.1553ZM13.4678 14.127V21.9268H14.8486C15.8604 21.9268 16.6465 21.6123 17.207 20.9834C17.7721 20.3545 18.0547 19.459 18.0547 18.2969V17.7158C18.0547 16.5856 17.7881 15.7083 17.2549 15.084C16.7262 14.4551 15.9743 14.1361 14.999 14.127H13.4678ZM20.8096 19.2334C20.8096 18.5088 20.9508 17.8571 21.2334 17.2783C21.5205 16.6995 21.917 16.2529 22.4229 15.9385C22.9333 15.624 23.5143 15.4668 24.166 15.4668C25.1732 15.4668 25.9867 15.8154 26.6064 16.5127C27.2308 17.21 27.543 18.1374 27.543 19.2949V19.3838C27.543 20.1038 27.404 20.751 27.126 21.3252C26.8525 21.8949 26.4583 22.3392 25.9434 22.6582C25.4329 22.9772 24.8451 23.1367 24.1797 23.1367C23.1771 23.1367 22.3636 22.7881 21.7393 22.0908C21.1195 21.3936 20.8096 20.4707 20.8096 19.3223V19.2334ZM22.0811 19.3838C22.0811 20.2041 22.2702 20.8626 22.6484 21.3594C23.0312 21.8561 23.5417 22.1045 24.1797 22.1045C24.8223 22.1045 25.3327 21.8538 25.7109 21.3525C26.0892 20.8467 26.2783 20.1403 26.2783 19.2334C26.2783 18.4222 26.0846 17.766 25.6973 17.2646C25.3145 16.7588 24.804 16.5059 24.166 16.5059C23.5417 16.5059 23.0381 16.7542 22.6553 17.251C22.2725 17.7477 22.0811 18.4587 22.0811 19.3838ZM35.6777 21.2568L37.0996 15.6035H38.3643L36.2109 23H35.1855L33.3877 17.3945L31.6377 23H30.6123L28.4658 15.6035H29.7236L31.1797 21.1406L32.9023 15.6035H33.9209L35.6777 21.2568ZM40.8525 15.6035L40.8936 16.5332C41.4587 15.8223 42.1969 15.4668 43.1084 15.4668C44.6715 15.4668 45.46 16.3486 45.4736 18.1123V23H44.209V18.1055C44.2044 17.5723 44.0814 17.1781 43.8398 16.9229C43.6029 16.6676 43.2314 16.54 42.7256 16.54C42.3154 16.54 41.9554 16.6494 41.6455 16.8682C41.3356 17.0869 41.0941 17.374 40.9209 17.7295V23H39.6562V15.6035H40.8525ZM48.7549 23H47.4902V12.5H48.7549V23ZM50.4502 19.2334C50.4502 18.5088 50.5915 17.8571 50.874 17.2783C51.1611 16.6995 51.5576 16.2529 52.0635 15.9385C52.5739 15.624 53.1549 15.4668 53.8066 15.4668C54.8138 15.4668 55.6273 15.8154 56.2471 16.5127C56.8714 17.21 57.1836 18.1374 57.1836 19.2949V19.3838C57.1836 20.1038 57.0446 20.751 56.7666 21.3252C56.4932 21.8949 56.099 22.3392 55.584 22.6582C55.0736 22.9772 54.4857 23.1367 53.8203 23.1367C52.8177 23.1367 52.0042 22.7881 51.3799 22.0908C50.7601 21.3936 50.4502 20.4707 50.4502 19.3223V19.2334ZM51.7217 19.3838C51.7217 20.2041 51.9108 20.8626 52.2891 21.3594C52.6719 21.8561 53.1823 22.1045 53.8203 22.1045C54.4629 22.1045 54.9733 21.8538 55.3516 21.3525C55.7298 20.8467 55.9189 20.1403 55.9189 19.2334C55.9189 18.4222 55.7253 17.766 55.3379 17.2646C54.9551 16.7588 54.4447 16.5059 53.8066 16.5059C53.1823 16.5059 52.6787 16.7542 52.2959 17.251C51.9131 17.7477 51.7217 18.4587 51.7217 19.3838ZM63.3359 23C63.263 22.8542 63.2038 22.5944 63.1582 22.2207C62.5703 22.8314 61.8685 23.1367 61.0527 23.1367C60.3236 23.1367 59.7243 22.9316 59.2549 22.5215C58.79 22.1068 58.5576 21.5827 58.5576 20.9492C58.5576 20.179 58.8493 19.582 59.4326 19.1582C60.0205 18.7298 60.8454 18.5156 61.9072 18.5156H63.1377V17.9346C63.1377 17.4925 63.0055 17.1416 62.7412 16.8818C62.4769 16.6175 62.0872 16.4854 61.5723 16.4854C61.1211 16.4854 60.7428 16.5993 60.4375 16.8271C60.1322 17.055 59.9795 17.3307 59.9795 17.6543H58.708C58.708 17.2852 58.8379 16.9297 59.0977 16.5879C59.362 16.2415 59.7174 15.9681 60.1641 15.7676C60.6152 15.5671 61.1097 15.4668 61.6475 15.4668C62.4997 15.4668 63.1673 15.681 63.6504 16.1094C64.1335 16.5332 64.3841 17.1188 64.4023 17.8662V21.2705C64.4023 21.9495 64.4889 22.4896 64.6621 22.8906V23H63.3359ZM61.2373 22.0361C61.6338 22.0361 62.0098 21.9336 62.3652 21.7285C62.7207 21.5234 62.9782 21.2568 63.1377 20.9287V19.4111H62.1465C60.597 19.4111 59.8223 19.8646 59.8223 20.7715C59.8223 21.168 59.9544 21.4779 60.2188 21.7012C60.4831 21.9245 60.8226 22.0361 61.2373 22.0361ZM66.0771 19.2402C66.0771 18.1055 66.346 17.194 66.8838 16.5059C67.4215 15.8132 68.1257 15.4668 68.9961 15.4668C69.862 15.4668 70.5479 15.763 71.0537 16.3555V12.5H72.3184V23H71.1562L71.0947 22.207C70.5889 22.8268 69.8848 23.1367 68.9824 23.1367C68.1257 23.1367 67.4261 22.7858 66.8838 22.084C66.346 21.3822 66.0771 20.4661 66.0771 19.3359V19.2402ZM67.3418 19.3838C67.3418 20.2223 67.515 20.8786 67.8613 21.3525C68.2077 21.8265 68.6862 22.0635 69.2969 22.0635C70.099 22.0635 70.6846 21.7035 71.0537 20.9834V17.5859C70.6755 16.8887 70.0944 16.54 69.3105 16.54C68.6908 16.54 68.2077 16.7793 67.8613 17.2578C67.515 17.7363 67.3418 18.445 67.3418 19.3838ZM83.4541 20.4023H79.2842L78.3477 23H76.9941L80.7949 13.0469H81.9434L85.751 23H84.4043L83.4541 20.4023ZM79.6807 19.3223H83.0645L81.3691 14.667L79.6807 19.3223ZM88.4033 19.1035V23H87.0908V13.0469H90.7617C91.8509 13.0469 92.7031 13.3249 93.3184 13.8809C93.9382 14.4368 94.248 15.1729 94.248 16.0889C94.248 17.055 93.945 17.8001 93.3389 18.3242C92.7373 18.8438 91.8737 19.1035 90.748 19.1035H88.4033ZM88.4033 18.0303H90.7617C91.4635 18.0303 92.0013 17.8662 92.375 17.5381C92.7487 17.2054 92.9355 16.7269 92.9355 16.1025C92.9355 15.5101 92.7487 15.0361 92.375 14.6807C92.0013 14.3252 91.4886 14.1406 90.8369 14.127H88.4033V18.0303ZM98.4521 18.3721L97.2354 19.6367V23H95.9229V13.0469H97.2354V17.9688L101.658 13.0469H103.244L99.3271 17.4424L103.552 23H101.979L98.4521 18.3721Z" fill="white"/>
</svg>
