<svg width="360" height="640" viewBox="0 0 360 640" fill="none" xmlns="http://www.w3.org/2000/svg">
<mask id="mask0" mask-type="alpha" maskUnits="userSpaceOnUse" x="0" y="0" width="360" height="640">
<rect width="360" height="640" fill="#C4C4C4"/>
</mask>
<g mask="url(#mask0)">
<g opacity="0.4">
<mask id="mask1" mask-type="alpha" maskUnits="userSpaceOnUse" x="-173" y="-314" width="1756" height="1183">
<path d="M177.571 645.898L-165.977 177.347L-172.681 155.338L1345.16 -282.933L1495.54 115.777L1067.99 395.928L835.968 627.019L177.571 645.898Z" fill="black"/>
</mask>
<g mask="url(#mask1)">
<circle opacity="0.93" cx="50.9289" cy="182.913" r="1.03946" transform="rotate(178.06 50.9289 182.913)" fill="white"/>
<circle opacity="0.81" cx="97.8441" cy="136.852" r="1.66314" transform="rotate(-32.9403 97.8441 136.852)" fill="white"/>
<circle opacity="0.93" cx="161.052" cy="130.616" r="0.997881" transform="rotate(57.0597 161.052 130.616)" fill="white"/>
<circle opacity="0.78" cx="267.74" cy="98.0793" r="0.845427" transform="rotate(29.0597 267.74 98.0793)" fill="white"/>
<circle opacity="0.89" cx="290.012" cy="101.717" r="1.56612" transform="rotate(128.06 290.012 101.717)" fill="white"/>
<circle opacity="0.76" cx="2.40935" cy="189.164" r="0.914725" transform="rotate(96.0597 2.40935 189.164)" fill="white"/>
<circle opacity="0.94" cx="204.028" cy="152.448" r="1.28893" transform="rotate(63.0597 204.028 152.448)" fill="white"/>
<circle opacity="0.3" cx="269.555" cy="136.731" r="1.66314" transform="rotate(-58.9403 269.555 136.731)" fill="white"/>
<circle opacity="0.89" cx="324.897" cy="105.084" r="1.56612" transform="rotate(-16.9403 324.897 105.084)" fill="white"/>
<circle opacity="0.9" cx="-0.105523" cy="286.751" r="0.845427" transform="rotate(175.06 -0.105523 286.751)" fill="white"/>
<circle opacity="0.4" cx="78.4192" cy="213.763" r="1.05332" transform="rotate(-149.94 78.4192 213.763)" fill="white"/>
<circle opacity="0.2" cx="135.367" cy="243.714" r="1.45524" transform="rotate(-138.94 135.367 243.714)" fill="white"/>
<circle opacity="0.1" cx="213.298" cy="213.472" r="1.45524" transform="rotate(-65.9403 213.298 213.472)" fill="white"/>
<circle opacity="0.76" cx="238.38" cy="202.257" r="0.997881" transform="rotate(122.06 238.38 202.257)" fill="white"/>
<circle opacity="0.9" cx="80.0854" cy="332.369" r="1.15034" transform="rotate(160.06 80.0854 332.369)" fill="white"/>
<circle opacity="0.97" cx="107.049" cy="273.631" r="1.26121" transform="rotate(-165.94 107.049 273.631)" fill="white"/>
<circle opacity="0.1" cx="247.097" cy="257.524" r="1.64928" transform="rotate(-38.9403 247.097 257.524)" fill="white"/>
<circle opacity="0.91" cx="12.7416" cy="357.939" r="1.55226" transform="rotate(126.06 12.7416 357.939)" fill="white"/>
<circle opacity="0.86" cx="67.4833" cy="370.073" r="0.873146" transform="rotate(151.06 67.4833 370.073)" fill="white"/>
<circle opacity="0.9" cx="143.285" cy="315.859" r="1.31665" transform="rotate(-12.9403 143.285 315.859)" fill="white"/>
<circle opacity="0.77" cx="293.424" cy="293.935" r="1.48296" transform="rotate(87.0597 293.424 293.935)" fill="white"/>
<circle opacity="0.74" cx="7.29982" cy="405.025" r="1.30279" transform="rotate(175.06 7.29982 405.025)" fill="white"/>
<circle opacity="0.5" cx="199.832" cy="331.023" r="1.44138" transform="rotate(159.06 199.832 331.023)" fill="white"/>
<circle opacity="0.81" cx="50.2027" cy="447.526" r="1.31665" transform="rotate(-153.94 50.2027 447.526)" fill="white"/>
<circle opacity="0.81" cx="128.133" cy="419.38" r="1.28893" transform="rotate(-129.94 128.133 419.38)" fill="white"/>
<circle opacity="0.72" cx="177.783" cy="382.688" r="1.03946" transform="rotate(-128.94 177.783 382.688)" fill="white"/>
<circle opacity="0.98" cx="248.184" cy="398.639" r="1.03946" transform="rotate(2.05966 248.184 398.639)" fill="white"/>
<circle opacity="0.89" cx="326.469" cy="365.084" r="0.997881" transform="rotate(-177.94 326.469 365.084)" fill="white"/>
<circle opacity="0.84" cx="42.5127" cy="491.423" r="1.64928" transform="rotate(175.06 42.5127 491.423)" fill="white"/>
<circle opacity="0.74" cx="94.3099" cy="456.485" r="1.01174" transform="rotate(-50.9403 94.3099 456.485)" fill="white"/>
<circle opacity="0.86" cx="153.881" cy="452.816" r="0.900865" transform="rotate(-179.94 153.881 452.816)" fill="white"/>
<circle opacity="0.96" cx="253.806" cy="439.567" r="1.35823" transform="rotate(-141.94 253.806 439.567)" fill="white"/>
<circle opacity="0.87" cx="347.418" cy="409.671" r="1.56612" transform="rotate(26.0597 347.418 409.671)" fill="white"/>
<circle opacity="0.73" cx="55.8328" cy="548.595" r="1.63542" transform="rotate(175.06 55.8328 548.595)" fill="white"/>
<circle opacity="0.86" cx="135.798" cy="509.738" r="1.4691" transform="rotate(46.0597 135.798 509.738)" fill="white"/>
<circle opacity="0.88" cx="192.928" cy="493.312" r="1.38595" transform="rotate(114.06 192.928 493.312)" fill="white"/>
<circle opacity="0.9" cx="275.13" cy="469.323" r="1.13648" transform="rotate(131.06 275.13 469.323)" fill="white"/>
<circle opacity="0.92" cx="326.537" cy="439.411" r="0.928584" transform="rotate(124.06 326.537 439.411)" fill="white"/>
<circle opacity="0.88" cx="57.4981" cy="552.359" r="1.6077" transform="rotate(-71.9403 57.4981 552.359)" fill="white"/>
<circle opacity="0.99" cx="132.932" cy="559.873" r="0.873146" transform="rotate(-44.9403 132.932 559.873)" fill="white"/>
<circle opacity="0.74" cx="179.764" cy="555.643" r="1.27507" transform="rotate(-20.9403 179.764 555.643)" fill="white"/>
<circle opacity="0.75" cx="290.409" cy="506.598" r="1.6077" transform="rotate(148.06 290.409 506.598)" fill="white"/>
</g>
</g>
<path d="M392.497 116.498C393.829 120.373 393.49 124.938 391.552 130.122C389.613 135.31 386.083 141.086 381.086 147.34C371.093 159.847 355.302 174.179 334.899 189.429C294.099 219.925 234.948 254.028 167.118 284.5C99.2882 314.971 35.6508 336.029 -12.3978 345.447C-36.4261 350.156 -56.5289 351.95 -71.299 350.567C-78.6845 349.876 -84.7109 348.393 -89.2223 346.102C-93.7302 343.814 -96.6976 340.735 -98.0302 336.86C-99.3628 332.985 -99.024 328.421 -97.086 323.236C-95.1466 318.048 -91.6167 312.272 -86.6197 306.018C-76.6263 293.511 -60.8354 279.179 -40.4321 263.929C0.3677 233.433 59.5186 199.33 127.348 168.858C195.178 138.387 258.816 117.329 306.864 107.912C330.893 103.202 350.995 101.409 365.765 102.791C373.151 103.482 379.177 104.965 383.689 107.256C388.197 109.545 391.164 112.624 392.497 116.498Z" stroke="url(#paint0_linear)"/>
<path d="M367.893 127.551C370.458 135.009 366.97 144.94 358.101 156.646C349.259 168.317 335.186 181.591 316.939 195.633C280.452 223.712 227.366 254.795 166.332 282.214C105.298 309.632 47.9015 328.182 4.45046 336.013C-17.2789 339.93 -35.4932 341.161 -48.9219 339.495C-62.3911 337.824 -70.8622 333.265 -73.4268 325.807C-75.9914 318.35 -72.5036 308.418 -63.6349 296.712C-54.7928 285.042 -40.7201 271.768 -22.473 257.726C14.0147 229.646 67.1006 198.563 128.135 171.145C189.169 143.726 246.565 125.177 290.016 117.345C311.745 113.429 329.96 112.198 343.388 113.864C356.857 115.535 365.329 120.094 367.893 127.551Z" stroke="url(#paint1_linear)"/>
<path d="M343.049 138.712C345.498 145.83 342.565 155.12 334.856 165.941C327.165 176.736 314.817 188.912 298.739 201.71C266.59 227.302 219.618 255.305 165.447 279.64C111.275 303.976 60.1916 320.023 21.4 326.301C2.00045 329.44 -14.2968 330.132 -26.36 328.212C-38.4532 326.286 -46.1351 321.765 -48.5833 314.647C-51.0314 307.528 -48.0991 298.238 -40.3894 287.417C-32.6988 276.623 -20.3512 264.446 -4.27328 251.648C27.8764 226.057 74.8478 198.054 129.02 173.718C183.191 149.382 234.275 133.336 273.066 127.058C292.466 123.918 308.763 123.227 320.826 125.147C332.919 127.072 340.601 131.593 343.049 138.712Z" stroke="url(#paint2_linear)"/>
<g filter="url(#filter0_ii)">
<circle cx="86.5" cy="205.5" r="78.5" fill="url(#paint3_linear)"/>
</g>
<mask id="mask2" mask-type="alpha" maskUnits="userSpaceOnUse" x="8" y="127" width="157" height="157">
<circle cx="86.5" cy="205.5" r="78.5" fill="url(#paint4_linear)"/>
</mask>
<g mask="url(#mask2)">
<g opacity="0.4" filter="url(#filter1_f)">
<circle cx="3.5" cy="131.5" r="68.5" fill="#29F2D0"/>
</g>
</g>
<g filter="url(#filter2_i)">
<circle cx="312.5" cy="462.5" r="39.5" fill="url(#paint5_linear)"/>
</g>
<mask id="mask3" mask-type="alpha" maskUnits="userSpaceOnUse" x="273" y="422" width="79" height="80">
<circle cx="312.5" cy="462.5" r="39.5" fill="url(#paint6_linear)"/>
</mask>
<g mask="url(#mask3)">
<g opacity="0.4" filter="url(#filter3_f)">
<circle cx="270.736" cy="425.264" r="34.4682" fill="#44F4FF"/>
</g>
</g>
</g>
<defs>
<filter id="filter0_ii" x="8" y="127" width="167" height="161" filterUnits="userSpaceOnUse" color-interpolation-filters="sRGB">
<feFlood flood-opacity="0" result="BackgroundImageFix"/>
<feBlend mode="normal" in="SourceGraphic" in2="BackgroundImageFix" result="shape"/>
<feColorMatrix in="SourceAlpha" type="matrix" values="0 0 0 0 0 0 0 0 0 0 0 0 0 0 0 0 0 0 127 0" result="hardAlpha"/>
<feOffset dx="10" dy="4"/>
<feGaussianBlur stdDeviation="25"/>
<feComposite in2="hardAlpha" operator="arithmetic" k2="-1" k3="1"/>
<feColorMatrix type="matrix" values="0 0 0 0 0.382639 0 0 0 0 0.604167 0 0 0 0 0.514613 0 0 0 0.6 0"/>
<feBlend mode="normal" in2="shape" result="effect1_innerShadow"/>
<feColorMatrix in="SourceAlpha" type="matrix" values="0 0 0 0 0 0 0 0 0 0 0 0 0 0 0 0 0 0 127 0" result="hardAlpha"/>
<feOffset dx="2" dy="2"/>
<feGaussianBlur stdDeviation="10"/>
<feComposite in2="hardAlpha" operator="arithmetic" k2="-1" k3="1"/>
<feColorMatrix type="matrix" values="0 0 0 0 0.44974 0 0 0 0 0.654167 0 0 0 0 0.558477 0 0 0 1 0"/>
<feBlend mode="normal" in2="effect1_innerShadow" result="effect2_innerShadow"/>
</filter>
<filter id="filter1_f" x="-120" y="8" width="247" height="247" filterUnits="userSpaceOnUse" color-interpolation-filters="sRGB">
<feFlood flood-opacity="0" result="BackgroundImageFix"/>
<feBlend mode="normal" in="SourceGraphic" in2="BackgroundImageFix" result="shape"/>
<feGaussianBlur stdDeviation="27.5" result="effect1_foregroundBlur"/>
</filter>
<filter id="filter2_i" x="273" y="423" width="83" height="79" filterUnits="userSpaceOnUse" color-interpolation-filters="sRGB">
<feFlood flood-opacity="0" result="BackgroundImageFix"/>
<feBlend mode="normal" in="SourceGraphic" in2="BackgroundImageFix" result="shape"/>
<feColorMatrix in="SourceAlpha" type="matrix" values="0 0 0 0 0 0 0 0 0 0 0 0 0 0 0 0 0 0 127 0" result="hardAlpha"/>
<feOffset dx="4"/>
<feGaussianBlur stdDeviation="10"/>
<feComposite in2="hardAlpha" operator="arithmetic" k2="-1" k3="1"/>
<feColorMatrix type="matrix" values="0 0 0 0 0.410833 0 0 0 0 0.858903 0 0 0 0 0.966667 0 0 0 1 0"/>
<feBlend mode="normal" in2="shape" result="effect1_innerShadow"/>
</filter>
<filter id="filter3_f" x="181.268" y="335.796" width="178.936" height="178.936" filterUnits="userSpaceOnUse" color-interpolation-filters="sRGB">
<feFlood flood-opacity="0" result="BackgroundImageFix"/>
<feBlend mode="normal" in="SourceGraphic" in2="BackgroundImageFix" result="shape"/>
<feGaussianBlur stdDeviation="27.5" result="effect1_foregroundBlur"/>
</filter>
<linearGradient id="paint0_linear" x1="127.186" y1="168.385" x2="177.499" y2="280.382" gradientUnits="userSpaceOnUse">
<stop stop-color="#29355C"/>
<stop offset="1" stop-color="#2F2956"/>
</linearGradient>
<linearGradient id="paint1_linear" x1="-33.6719" y1="277.685" x2="357.511" y2="163.719" gradientUnits="userSpaceOnUse">
<stop stop-color="#2D667E"/>
<stop offset="1" stop-color="#2F2956"/>
</linearGradient>
<linearGradient id="paint2_linear" x1="-13.9449" y1="270.214" x2="333.108" y2="167.858" gradientUnits="userSpaceOnUse">
<stop stop-color="#2D667E"/>
<stop offset="1" stop-color="#2F2956"/>
</linearGradient>
<linearGradient id="paint3_linear" x1="28" y1="137" x2="145" y2="262" gradientUnits="userSpaceOnUse">
<stop stop-color="#2D3035"/>
<stop offset="0.515758" stop-color="#1B0723"/>
<stop offset="1" stop-color="#54020F"/>
</linearGradient>
<linearGradient id="paint4_linear" x1="28" y1="137" x2="180" y2="244" gradientUnits="userSpaceOnUse">
<stop stop-color="#2D3035"/>
<stop offset="0.515758" stop-color="#C057EA"/>
<stop offset="1" stop-color="#6B1D29"/>
</linearGradient>
<linearGradient id="paint5_linear" x1="289" y1="430" x2="337" y2="490" gradientUnits="userSpaceOnUse">
<stop stop-color="#165A70"/>
<stop offset="0.515758" stop-color="#203459"/>
<stop offset="1" stop-color="#413378"/>
</linearGradient>
<linearGradient id="paint6_linear" x1="283.064" y1="428.032" x2="359.548" y2="481.872" gradientUnits="userSpaceOnUse">
<stop stop-color="#165A70"/>
<stop offset="0.515758" stop-color="#193E82"/>
<stop offset="1" stop-color="#3A1EA9"/>
</linearGradient>
</defs>
</svg>
