<svg width="72" height="36" viewBox="0 0 72 36" fill="none" xmlns="http://www.w3.org/2000/svg">
<rect width="72" height="36" rx="4" fill="white" fill-opacity="0.05"/>
<rect x="0.5" y="0.5" width="71" height="35" rx="3.5" stroke="white" stroke-opacity="0.1"/>
<path d="M17.9258 7.46875L20.7148 14.4297L23.5039 7.46875H24.9629V16H23.8379V12.6777L23.9434 9.0918L21.1426 16H20.2812L17.4863 9.10938L17.5977 12.6777V16H16.4727V7.46875H17.9258ZM27.957 16H26.873V9.66016H27.957V16ZM26.7852 7.97852C26.7852 7.80273 26.8379 7.6543 26.9434 7.5332C27.0527 7.41211 27.2129 7.35156 27.4238 7.35156C27.6348 7.35156 27.7949 7.41211 27.9043 7.5332C28.0137 7.6543 28.0684 7.80273 28.0684 7.97852C28.0684 8.1543 28.0137 8.30078 27.9043 8.41797C27.7949 8.53516 27.6348 8.59375 27.4238 8.59375C27.2129 8.59375 27.0527 8.53516 26.9434 8.41797C26.8379 8.30078 26.7852 8.1543 26.7852 7.97852ZM32.7617 10.6328C32.5977 10.6055 32.4199 10.5918 32.2285 10.5918C31.5176 10.5918 31.0352 10.8945 30.7812 11.5V16H29.6973V9.66016H30.752L30.7695 10.3926C31.125 9.82617 31.6289 9.54297 32.2812 9.54297C32.4922 9.54297 32.6523 9.57031 32.7617 9.625V10.6328ZM36.8281 10.6328C36.6641 10.6055 36.4863 10.5918 36.2949 10.5918C35.584 10.5918 35.1016 10.8945 34.8477 11.5V16H33.7637V9.66016H34.8184L34.8359 10.3926C35.1914 9.82617 35.6953 9.54297 36.3477 9.54297C36.5586 9.54297 36.7188 9.57031 36.8281 9.625V10.6328ZM37.4258 12.7715C37.4258 12.1504 37.5469 11.5918 37.7891 11.0957C38.0352 10.5996 38.375 10.2168 38.8086 9.94727C39.2461 9.67773 39.7441 9.54297 40.3027 9.54297C41.166 9.54297 41.8633 9.8418 42.3945 10.4395C42.9297 11.0371 43.1973 11.832 43.1973 12.8242V12.9004C43.1973 13.5176 43.0781 14.0723 42.8398 14.5645C42.6055 15.0527 42.2676 15.4336 41.8262 15.707C41.3887 15.9805 40.8848 16.1172 40.3145 16.1172C39.4551 16.1172 38.7578 15.8184 38.2227 15.2207C37.6914 14.623 37.4258 13.832 37.4258 12.8477V12.7715ZM38.5156 12.9004C38.5156 13.6035 38.6777 14.168 39.002 14.5938C39.3301 15.0195 39.7676 15.2324 40.3145 15.2324C40.8652 15.2324 41.3027 15.0176 41.627 14.5879C41.9512 14.1543 42.1133 13.5488 42.1133 12.7715C42.1133 12.0762 41.9473 11.5137 41.6152 11.084C41.2871 10.6504 40.8496 10.4336 40.3027 10.4336C39.7676 10.4336 39.3359 10.6465 39.0078 11.0723C38.6797 11.498 38.5156 12.1074 38.5156 12.9004ZM47.6211 10.6328C47.457 10.6055 47.2793 10.5918 47.0879 10.5918C46.377 10.5918 45.8945 10.8945 45.6406 11.5V16H44.5566V9.66016H45.6113L45.6289 10.3926C45.9844 9.82617 46.4883 9.54297 47.1406 9.54297C47.3516 9.54297 47.5117 9.57031 47.6211 9.625V10.6328ZM55.0508 16H53.9609V8.77539L51.7754 9.57812V8.59375L54.8809 7.42773H55.0508V16ZM35.4268 26.8418C35.3037 27.8945 34.9141 28.708 34.2578 29.2822C33.6061 29.8519 32.738 30.1367 31.6533 30.1367C30.4775 30.1367 29.5342 29.7152 28.8232 28.8721C28.1169 28.029 27.7637 26.901 27.7637 25.4883V24.5312C27.7637 23.6061 27.9277 22.7926 28.2559 22.0908C28.5885 21.389 29.0579 20.8512 29.6641 20.4775C30.2702 20.0993 30.972 19.9102 31.7695 19.9102C32.8268 19.9102 33.6745 20.2064 34.3125 20.7988C34.9505 21.3867 35.3219 22.2025 35.4268 23.2461H34.1074C33.9935 22.4531 33.7451 21.8789 33.3623 21.5234C32.984 21.168 32.4531 20.9902 31.7695 20.9902C30.931 20.9902 30.2725 21.3001 29.7939 21.9199C29.32 22.5397 29.083 23.4215 29.083 24.5654V25.5293C29.083 26.6094 29.3086 27.4684 29.7598 28.1064C30.2109 28.7445 30.8421 29.0635 31.6533 29.0635C32.3825 29.0635 32.9408 28.8994 33.3281 28.5713C33.7201 28.2386 33.9798 27.6621 34.1074 26.8418H35.4268ZM44.874 30H43.5547L38.5439 22.3301V30H37.2246V20.0469H38.5439L43.5684 27.751V20.0469H44.874V30Z" fill="white"/>
</svg>
