<svg width="24" height="24" viewBox="0 0 24 24" fill="none" xmlns="http://www.w3.org/2000/svg">
<g clip-path="url(#clip0)">
<path d="M12.0004 23.6004C18.4069 23.6004 23.6004 18.4069 23.6004 12.0004C23.6004 5.59389 18.4069 0.400391 12.0004 0.400391C5.59389 0.400391 0.400391 5.59389 0.400391 12.0004C0.400391 18.4069 5.59389 23.6004 12.0004 23.6004Z" stroke="#44FFB2"/>
<path d="M13.1888 6.38746C12.7711 6.37834 12.3559 6.45372 11.968 6.60906C11.0584 6.98666 10.6144 7.82986 10.6144 9.18346V10.4931H9.34961V12.6683H10.6144V18.9491H13.1888V12.6683H14.9424L15.1864 10.4931H13.1864V9.51706C13.161 9.29746 13.1996 9.07519 13.2976 8.87706C13.4088 8.67706 13.6304 8.58826 13.9856 8.58826H15.1616V6.40986H13.1864L13.1888 6.38746Z" fill="#44FFB2"/>
</g>
<defs>
<clipPath id="clip0">
<rect width="24" height="24" fill="white"/>
</clipPath>
</defs>
</svg>
