<svg width="24" height="24" viewBox="0 0 24 24" fill="none" xmlns="http://www.w3.org/2000/svg">
<g clip-path="url(#clip0)">
<path d="M12.0004 23.6004C18.4069 23.6004 23.6004 18.4069 23.6004 12.0004C23.6004 5.59389 18.4069 0.400391 12.0004 0.400391C5.59389 0.400391 0.400391 5.59389 0.400391 12.0004C0.400391 18.4069 5.59389 23.6004 12.0004 23.6004Z" stroke="#44FFB2"/>
<path d="M9.08342 6.65707C9.0846 6.83834 9.04802 7.01787 8.976 7.18422C8.90399 7.35058 8.79812 7.50011 8.66515 7.62331C8.53217 7.7465 8.37499 7.84066 8.20363 7.89977C8.03227 7.95889 7.85048 7.98167 7.66982 7.96667C7.49175 7.97389 7.31408 7.94475 7.14764 7.88104C6.9812 7.81733 6.82948 7.72037 6.70175 7.59609C6.57402 7.47181 6.47295 7.3228 6.4047 7.15817C6.33645 6.99354 6.30246 6.81673 6.3048 6.63853C6.30714 6.46032 6.34576 6.28447 6.41831 6.12168C6.49085 5.9589 6.5958 5.8126 6.72676 5.69171C6.85771 5.57083 7.01191 5.47789 7.17997 5.41857C7.34802 5.35924 7.5264 5.33478 7.70422 5.34667C7.8825 5.33519 8.06123 5.36069 8.22919 5.42157C8.39714 5.48245 8.5507 5.5774 8.68021 5.70045C8.80973 5.8235 8.9124 5.972 8.98179 6.13662C9.05118 6.30125 9.08578 6.47844 9.08342 6.65707ZM6.37782 17.4299V9.00187H8.99782V17.4299H6.37782ZM10.565 11.6899C10.565 10.6387 10.5306 9.75947 10.4954 9.00107H12.7714L12.8922 10.1731H12.9442C13.2269 9.7441 13.6141 9.39415 14.0694 9.15621C14.5247 8.91828 15.0331 8.80019 15.5466 8.81307C17.2698 8.81307 18.5626 9.96827 18.5626 12.4499V17.4315H15.9434V12.7595C15.9434 11.6739 15.5634 10.9323 14.6154 10.9323C14.317 10.9371 14.0275 11.0345 13.7868 11.2111C13.5462 11.3877 13.3664 11.6346 13.2722 11.9179C13.2049 12.1294 13.1756 12.3513 13.1858 12.5731V17.4339H10.5658L10.565 11.6899Z" fill="#44FFB2"/>
</g>
<defs>
<clipPath id="clip0">
<rect width="24" height="24" fill="white"/>
</clipPath>
</defs>
</svg>
