<svg width="24" height="24" viewBox="0 0 24 24" fill="none" xmlns="http://www.w3.org/2000/svg">
<g clip-path="url(#clip0)">
<path d="M12.0004 23.6004C18.4069 23.6004 23.6004 18.4069 23.6004 12.0004C23.6004 5.59389 18.4069 0.400391 12.0004 0.400391C5.59389 0.400391 0.400391 5.59389 0.400391 12.0004C0.400391 18.4069 5.59389 23.6004 12.0004 23.6004Z" stroke="#44FFB2"/>
<path d="M17.7588 15.2556H14.1004V16.2156L14.8708 16.986V17.1788H9.86519V16.986L10.6356 16.2156V15.2556H6.97799C6.8248 15.2556 6.67789 15.1947 6.56956 15.0864C6.46124 14.9781 6.40039 14.8312 6.40039 14.678V6.97799C6.40039 6.8248 6.46124 6.67789 6.56956 6.56957C6.67789 6.46125 6.8248 6.40039 6.97799 6.40039H17.7588C17.912 6.40039 18.0589 6.46125 18.1672 6.56957C18.2755 6.67789 18.3364 6.8248 18.3364 6.97799V14.678C18.3364 14.8312 18.2755 14.9781 18.1672 15.0864C18.0589 15.1947 17.912 15.2556 17.7588 15.2556ZM17.566 7.16999H7.17079V13.7156H17.566V7.16999Z" fill="#44FFB2"/>
</g>
<defs>
<clipPath id="clip0">
<rect width="24" height="24" fill="white"/>
</clipPath>
</defs>
</svg>
