<svg width="24" height="24" viewBox="0 0 24 24" fill="none" xmlns="http://www.w3.org/2000/svg">
<g clip-path="url(#clip0)">
<path d="M12.0004 23.6004C18.4069 23.6004 23.6004 18.4069 23.6004 12.0004C23.6004 5.59389 18.4069 0.400391 12.0004 0.400391C5.59389 0.400391 0.400391 5.59389 0.400391 12.0004C0.400391 18.4069 5.59389 23.6004 12.0004 23.6004Z" stroke="#44FFB2"/>
<path d="M16.559 12.0486C16.6221 12.083 16.6748 12.1337 16.7115 12.1955C16.7482 12.2573 16.7676 12.3279 16.7676 12.3998C16.7676 12.4716 16.7482 12.5422 16.7115 12.604C16.6748 12.6658 16.6221 12.7166 16.559 12.751L8.99024 16.8798C8.92933 16.9129 8.86085 16.9296 8.79151 16.9283C8.72218 16.927 8.65437 16.9077 8.59475 16.8723C8.53513 16.8369 8.48574 16.7866 8.45143 16.7263C8.41712 16.6661 8.39907 16.5979 8.39904 16.5286V8.27335C8.39865 8.2038 8.4164 8.13535 8.45054 8.07476C8.48468 8.01416 8.53403 7.96351 8.59372 7.92781C8.65341 7.89211 8.72137 7.87259 8.79091 7.87118C8.86045 7.86976 8.92915 7.88651 8.99024 7.91975L16.559 12.0486Z" fill="#44FFB2"/>
</g>
<defs>
<clipPath id="clip0">
<rect width="24" height="24" fill="white"/>
</clipPath>
</defs>
</svg>
