<svg width="24" height="24" viewBox="0 0 24 24" fill="none" xmlns="http://www.w3.org/2000/svg">
<g clip-path="url(#clip0)">
<path d="M12.0004 23.6004C18.4069 23.6004 23.6004 18.4069 23.6004 12.0004C23.6004 5.59389 18.4069 0.400391 12.0004 0.400391C5.59389 0.400391 0.400391 5.59389 0.400391 12.0004C0.400391 18.4069 5.59389 23.6004 12.0004 23.6004Z" stroke="#44FFB2"/>
<path d="M16.4802 8.52482C16.7024 8.52314 16.9151 8.4341 17.0723 8.27693C17.2294 8.11976 17.3185 7.90708 17.3202 7.68481C17.3216 7.57412 17.3008 7.46426 17.2591 7.36172C17.2173 7.25917 17.1555 7.16601 17.0772 7.08773C16.999 7.00945 16.9058 6.94763 16.8033 6.90591C16.7007 6.86419 16.5908 6.84342 16.4802 6.84481C16.2574 6.84481 16.0437 6.93331 15.8862 7.09084C15.7287 7.24838 15.6402 7.46203 15.6402 7.68481C15.6402 7.9076 15.7287 8.12125 15.8862 8.27878C16.0437 8.43632 16.2574 8.52482 16.4802 8.52482ZM11.701 15.5888C10.8685 15.6141 10.047 15.3949 9.33776 14.9584C9.32353 14.9456 9.30628 14.9366 9.28762 14.9323C9.26896 14.928 9.24951 14.9285 9.2311 14.9338C9.2127 14.939 9.19594 14.9489 9.1824 14.9625C9.16887 14.976 9.15901 14.9928 9.15375 15.0112L8.99376 15.3C8.97474 15.3402 8.9696 15.3856 8.97916 15.429C8.98871 15.4725 9.01241 15.5115 9.04655 15.54C9.8021 16.1208 10.75 16.393 11.6986 16.3016C13.6186 16.3016 14.2986 15.488 14.2986 15.488C14.3217 15.4587 14.3363 15.4235 14.341 15.3865C14.3456 15.3494 14.3401 15.3118 14.325 15.2776L14.141 15.0152C14.1152 14.9859 14.0795 14.967 14.0408 14.9622C14.002 14.9573 13.9628 14.9668 13.9306 14.9888C13.2647 15.4111 12.4865 15.6217 11.6986 15.5928L11.701 15.5888ZM8.99616 13.5648C9.21842 13.5631 9.43111 13.4741 9.58828 13.3169C9.74544 13.1598 9.83448 12.9471 9.83615 12.7248C9.83755 12.6141 9.81677 12.5043 9.77506 12.4017C9.73334 12.2992 9.67152 12.206 9.59324 12.1277C9.51496 12.0495 9.4218 11.9876 9.31925 11.9459C9.21671 11.9042 9.10685 11.8834 8.99616 11.8848C8.77389 11.8865 8.5612 11.9755 8.40404 12.1327C8.24687 12.2899 8.15783 12.5026 8.15615 12.7248C8.16221 12.9457 8.25265 13.1558 8.40889 13.3121C8.56512 13.4683 8.77529 13.5588 8.99616 13.5648ZM13.985 13.5648C14.2072 13.5631 14.4199 13.4741 14.5771 13.3169C14.7342 13.1598 14.8233 12.9471 14.825 12.7248C14.825 12.5587 14.7757 12.3963 14.6834 12.2581C14.5911 12.12 14.4599 12.0123 14.3064 11.9488C14.1529 11.8852 13.984 11.8685 13.8211 11.901C13.6581 11.9334 13.5085 12.0134 13.391 12.1308C13.2735 12.2483 13.1935 12.398 13.1611 12.5609C13.1287 12.7239 13.1453 12.8928 13.2089 13.0463C13.2725 13.1998 13.3801 13.3309 13.5183 13.4232C13.6564 13.5155 13.8188 13.5648 13.985 13.5648ZM14.825 7.55121C14.6938 7.49841 13.2754 7.02641 12.6714 7.44641C12.041 7.89281 12.0674 9.36641 12.1202 9.36641C13.4176 9.44211 14.6741 9.84891 15.7698 10.548C15.8498 10.6008 16.689 9.86562 17.6098 10.0232C17.8322 10.0546 18.0451 10.134 18.2338 10.2559C18.4224 10.3779 18.5823 10.5394 18.7022 10.7293C18.8222 10.9192 18.8994 11.133 18.9285 11.3557C18.9575 11.5785 18.9378 11.8049 18.8706 12.0192C18.5818 12.9648 17.689 13.2536 17.7154 13.5392V13.7792C17.7154 16.2216 14.9322 18.1904 11.4922 18.1904C8.05215 18.1904 5.26895 16.2208 5.26895 13.7792C5.26463 13.656 5.27349 13.5326 5.29536 13.4112C4.92944 13.1765 4.63086 12.8506 4.42896 12.4656C4.3265 12.2079 4.28274 11.9305 4.30087 11.6538C4.319 11.377 4.39855 11.1078 4.53375 10.8656C4.68485 10.5989 4.90686 10.3792 5.17515 10.231C5.44344 10.0827 5.74754 10.0116 6.05375 10.0256C6.53913 10.064 7.01216 10.1977 7.44575 10.4192C8.62901 9.73991 9.9678 9.37806 11.3322 9.36881C11.385 9.36881 11.2274 7.58322 12.225 6.92642C13.249 6.26962 14.9298 6.92642 14.9562 6.92642V6.97921C15.0863 6.69085 15.2965 6.44597 15.5619 6.27378C15.8273 6.10158 16.1366 6.00932 16.453 6.00801C16.7863 6.00293 17.1136 6.09713 17.3932 6.27861C17.6728 6.4601 17.8921 6.72068 18.0232 7.02717C18.1543 7.33367 18.1912 7.67224 18.1293 7.99979C18.0674 8.32735 17.9095 8.62908 17.6756 8.8666C17.4417 9.10412 17.1424 9.26668 16.8158 9.33361C16.4893 9.40053 16.1502 9.3688 15.8417 9.24243C15.5332 9.11606 15.2693 8.90078 15.0836 8.62397C14.8978 8.34717 14.7986 8.02137 14.7986 7.68801C14.7918 7.64254 14.8011 7.59612 14.825 7.55681V7.55121Z" fill="#44FFB2"/>
</g>
<defs>
<clipPath id="clip0">
<rect width="24" height="24" fill="white"/>
</clipPath>
</defs>
</svg>
