<svg width="24" height="24" viewBox="0 0 24 24" fill="none" xmlns="http://www.w3.org/2000/svg">
<g clip-path="url(#clip0)">
<path d="M12.0004 23.6004C18.4069 23.6004 23.6004 18.4069 23.6004 12.0004C23.6004 5.59389 18.4069 0.400391 12.0004 0.400391C5.59389 0.400391 0.400391 5.59389 0.400391 12.0004C0.400391 18.4069 5.59389 23.6004 12.0004 23.6004Z" stroke="#44FFB2"/>
<path d="M16.9662 8.11579C17.0971 7.78086 17.1584 7.42281 17.1464 7.06343C17.1345 6.70405 17.0495 6.35087 16.8967 6.02539C16.1026 6.05059 15.3408 6.34544 14.7366 6.86139C13.3678 6.48988 11.9247 6.48988 10.5558 6.86139C9.95176 6.34539 9.18992 6.05053 8.39585 6.02539C8.24301 6.35087 8.15802 6.70405 8.14605 7.06343C8.13409 7.42281 8.1954 7.78086 8.32625 8.11579C8.32625 8.11579 7.21185 9.16059 7.62945 11.391C7.78118 12.1711 8.211 12.8696 8.83901 13.3567C9.46702 13.8437 10.2505 14.0862 11.0438 14.039C10.8945 14.1811 10.7792 14.3552 10.7068 14.5482C10.6343 14.7412 10.6065 14.9481 10.6254 15.1534C10.4157 15.2725 10.1834 15.3464 9.94337 15.3704C9.70337 15.3943 9.46101 15.3678 9.23185 15.2926C8.78644 15.0903 8.41949 14.7478 8.18705 14.3174C8.18705 14.3174 7.49025 13.4118 6.79345 13.7574C6.79345 13.7574 6.58465 13.9662 7.35345 14.3174C7.63806 14.7412 7.8941 15.1835 8.11985 15.6414C8.32865 16.1294 9.44385 16.547 10.559 16.2686V17.8686C10.559 17.8686 10.559 18.0078 10.2806 18.0774C10.0022 18.147 10.0023 18.2862 10.1415 18.2862H15.1582C15.2974 18.2862 15.2975 18.147 15.0191 18.0774C14.7407 18.0078 14.7407 17.8686 14.7407 17.8686V16.2718C14.7407 16.2718 14.7471 15.4366 14.7407 15.1574C14.7285 14.7367 14.5536 14.3372 14.2527 14.043C15.046 14.0902 15.8295 13.8477 16.4575 13.3607C17.0855 12.8736 17.5153 12.1751 17.667 11.395C18.0854 9.16539 16.9702 8.11979 16.9702 8.11979L16.9662 8.11579Z" fill="#44FFB2"/>
<path d="M16.9662 8.11579C17.0971 7.78086 17.1584 7.42281 17.1464 7.06343C17.1345 6.70405 17.0495 6.35087 16.8967 6.02539C16.1026 6.05059 15.3408 6.34544 14.7366 6.86139C13.3678 6.48988 11.9247 6.48988 10.5558 6.86139C9.95176 6.34539 9.18992 6.05053 8.39585 6.02539C8.24301 6.35087 8.15802 6.70405 8.14605 7.06343C8.13409 7.42281 8.1954 7.78086 8.32625 8.11579C8.32625 8.11579 7.21185 9.16059 7.62945 11.391C7.78118 12.1711 8.211 12.8696 8.83901 13.3567C9.46702 13.8437 10.2505 14.0862 11.0438 14.039C10.8945 14.1811 10.7792 14.3552 10.7068 14.5482C10.6343 14.7412 10.6065 14.9481 10.6254 15.1534C10.4157 15.2725 10.1834 15.3464 9.94337 15.3704C9.70337 15.3943 9.46101 15.3678 9.23185 15.2926C8.78644 15.0903 8.41949 14.7478 8.18705 14.3174C8.18705 14.3174 7.49025 13.4118 6.79345 13.7574C6.79345 13.7574 6.58465 13.9662 7.35345 14.3174C7.63806 14.7412 7.8941 15.1835 8.11985 15.6414C8.32865 16.1294 9.44385 16.547 10.559 16.2686V17.8686C10.559 17.8686 10.559 18.0078 10.2806 18.0774C10.0022 18.147 10.0023 18.2862 10.1415 18.2862H15.1582C15.2974 18.2862 15.2975 18.147 15.0191 18.0774C14.7407 18.0078 14.7407 17.8686 14.7407 17.8686V16.2718C14.7407 16.2718 14.7471 15.4366 14.7407 15.1574C14.7285 14.7367 14.5536 14.3372 14.2527 14.043C15.046 14.0902 15.8295 13.8477 16.4575 13.3607C17.0855 12.8736 17.5153 12.1751 17.667 11.395C18.0854 9.16539 16.9702 8.11979 16.9702 8.11979L16.9662 8.11579Z" fill="#44FFB2"/>
</g>
<defs>
<clipPath id="clip0">
<rect width="24" height="24" fill="white"/>
</clipPath>
</defs>
</svg>
