<svg width="24" height="24" viewBox="0 0 24 24" fill="none" xmlns="http://www.w3.org/2000/svg">
<g clip-path="url(#clip0)">
<path d="M12.0004 23.6004C18.4069 23.6004 23.6004 18.4069 23.6004 12.0004C23.6004 5.59389 18.4069 0.400391 12.0004 0.400391C5.59389 0.400391 0.400391 5.59389 0.400391 12.0004C0.400391 18.4069 5.59389 23.6004 12.0004 23.6004Z" stroke="#44FFB2"/>
<path d="M18.2378 10.5385C18.1845 11.754 17.3354 13.4183 15.6906 15.5313C13.9925 17.7377 12.5559 18.8409 11.381 18.8409C10.653 18.8409 10.0373 18.1692 9.53381 16.8257L8.52581 13.1297C8.15248 11.7863 7.75248 11.1143 7.32581 11.1137C6.97176 11.26 6.64147 11.4582 6.34581 11.7017L5.75781 10.9449C6.36955 10.4079 6.97701 9.86627 7.58021 9.32014C8.08682 8.78897 8.7258 8.40238 9.43141 8.20013C10.4031 8.10627 11.0013 8.77054 11.2258 10.1929C11.4685 11.7273 11.6367 12.6812 11.7306 13.0545C12.0111 14.3276 12.3197 14.9639 12.6562 14.9633C12.917 14.9633 13.3095 14.5503 13.8338 13.7241C14.2451 13.1627 14.5315 12.5198 14.6738 11.8385C14.7485 11.126 14.4685 10.7695 13.8338 10.7689C13.5148 10.7735 13.2001 10.8432 12.909 10.9737C13.5229 8.9636 14.6962 7.9868 16.429 8.04334C17.7101 8.08014 18.313 8.91187 18.2378 10.5385Z" fill="#44FFB2"/>
</g>
<defs>
<clipPath id="clip0">
<rect width="24" height="24" fill="white"/>
</clipPath>
</defs>
</svg>
