<svg width="24" height="24" viewBox="0 0 24 24" fill="none" xmlns="http://www.w3.org/2000/svg">
<g clip-path="url(#clip0)">
<path d="M12.0004 23.6004C18.4069 23.6004 23.6004 18.4069 23.6004 12.0004C23.6004 5.59389 18.4069 0.400391 12.0004 0.400391C5.59389 0.400391 0.400391 5.59389 0.400391 12.0004C0.400391 18.4069 5.59389 23.6004 12.0004 23.6004Z" stroke="#44FFB2"/>
<path d="M6.48933 17.1939C6.20246 16.9094 5.97476 16.571 5.81937 16.1981C5.66399 15.8251 5.58398 15.4251 5.58398 15.0211C5.58398 14.6171 5.66399 14.2171 5.81937 13.8442C5.97476 13.4713 6.20246 13.1328 6.48933 12.8483L9.10373 10.2323C10.2709 9.06511 12.2021 8.62271 13.4493 9.86991C13.5847 10.0094 13.6597 10.1965 13.6582 10.3908C13.6568 10.5851 13.5789 10.7711 13.4415 10.9085C13.3041 11.0459 13.1182 11.1238 12.9238 11.1252C12.7295 11.1267 12.5424 11.0517 12.4029 10.9163C12.2721 10.7892 12.1115 10.6969 11.9359 10.6477C11.7603 10.5986 11.5751 10.5941 11.3973 10.6347C10.9318 10.7326 10.5011 10.9536 10.1501 11.2747L7.53493 13.8899C7.39082 14.0394 7.27758 14.2158 7.20167 14.4091C7.12577 14.6024 7.08868 14.8087 7.09253 15.0163C7.09221 15.4342 7.2503 15.8367 7.53493 16.1427C7.83011 16.4328 8.22744 16.5954 8.64133 16.5954C9.05522 16.5954 9.45255 16.4328 9.74773 16.1427L10.7533 15.1371C10.8928 15.0018 11.0799 14.9267 11.2742 14.9282C11.4686 14.9296 11.6545 15.0075 11.7919 15.1449C11.9293 15.2823 12.0072 15.4683 12.0086 15.6626C12.0101 15.8569 11.9351 16.044 11.7997 16.1835L10.7941 17.1891C10.5219 17.4825 10.1919 17.7162 9.82475 17.8755C9.45765 18.0348 9.06151 18.1162 8.66133 18.1147C8.25582 18.1126 7.85479 18.0297 7.48172 17.8707C7.10864 17.7118 6.77099 17.4801 6.48853 17.1891L6.48933 17.1939Z" fill="#44FFB2"/>
<path d="M10.5538 13.4523C10.4851 13.3823 10.4315 13.299 10.3961 13.2076C10.3608 13.1161 10.3444 13.0184 10.3482 12.9205C10.3519 12.8225 10.3757 12.7263 10.4179 12.6378C10.4601 12.5493 10.52 12.4704 10.5938 12.4059C10.7342 12.2702 10.9218 12.1944 11.117 12.1944C11.3122 12.1944 11.4998 12.2702 11.6402 12.4059C11.771 12.533 11.9316 12.6253 12.1072 12.6745C12.2828 12.7237 12.468 12.7281 12.6458 12.6875C13.1113 12.5896 13.542 12.3686 13.893 12.0475L16.5082 9.43229C16.6523 9.28279 16.7655 9.10637 16.8414 8.9131C16.9174 8.71983 16.9544 8.5135 16.9506 8.30589C16.9509 7.88798 16.7928 7.48548 16.5082 7.17949C16.2129 6.88956 15.8156 6.72712 15.4018 6.72712C14.988 6.72712 14.5907 6.88956 14.2954 7.17949L13.2098 8.22349C13.0703 8.35882 12.8832 8.43387 12.6889 8.43241C12.4946 8.43095 12.3086 8.3531 12.1712 8.21569C12.0338 8.07827 11.9559 7.89232 11.9545 7.69799C11.953 7.50366 12.0281 7.31655 12.1634 7.17709L13.1698 6.17149C13.7461 5.59523 14.5276 5.27148 15.3426 5.27148C16.1575 5.27148 16.9391 5.59523 17.5154 6.17149C18.0917 6.74775 18.4154 7.52933 18.4154 8.34429C18.4154 9.15925 18.0917 9.94083 17.5154 10.5171L14.9002 13.1323C14.2344 13.8241 13.3247 14.2283 12.365 14.2587C11.6822 14.2236 11.0367 13.9363 10.5538 13.4523Z" fill="#44FFB2"/>
</g>
<defs>
<clipPath id="clip0">
<rect width="24" height="24" fill="white"/>
</clipPath>
</defs>
</svg>
