<svg width="24" height="24" viewBox="0 0 24 24" fill="none" xmlns="http://www.w3.org/2000/svg">
<g clip-path="url(#clip0)">
<path d="M12.0004 23.6004C18.4069 23.6004 23.6004 18.4069 23.6004 12.0004C23.6004 5.59389 18.4069 0.400391 12.0004 0.400391C5.59389 0.400391 0.400391 5.59389 0.400391 12.0004C0.400391 18.4069 5.59389 23.6004 12.0004 23.6004Z" stroke="#44FFB2"/>
<path d="M18.5556 8.06695C18.5552 8.00767 18.5315 7.95094 18.4896 7.90902C18.4476 7.86711 18.3909 7.84337 18.3316 7.84295C18.262 7.84295 17.7788 8.04615 17.6532 8.08295C17.9118 7.78131 18.1003 7.42613 18.2052 7.04295C18.2048 6.98367 18.1811 6.92694 18.1392 6.88502C18.0972 6.84311 18.0405 6.81937 17.9812 6.81895C17.9415 6.82089 17.9029 6.83301 17.8692 6.85415C17.4128 7.11748 16.9192 7.31057 16.4052 7.42695C15.8746 6.91713 15.1683 6.63073 14.4324 6.62695C13.6833 6.62843 12.9652 6.92669 12.4355 7.45642C11.9058 7.98615 11.6075 8.7042 11.606 9.45335C11.6047 9.56807 11.6138 9.68268 11.6332 9.79575C10.0919 9.65799 8.63667 9.0248 7.48524 7.99095C7.21467 7.73675 6.95778 7.46837 6.71564 7.18695C6.69348 7.15848 6.6646 7.13594 6.6316 7.12136C6.5986 7.10677 6.56249 7.10058 6.52652 7.10336C6.49054 7.10613 6.45581 7.11778 6.42544 7.13725C6.39506 7.15672 6.36998 7.18342 6.35244 7.21495C6.06155 7.71227 5.93034 8.28691 5.97655 8.8612C6.02277 9.43549 6.24417 9.98175 6.61084 10.4262C6.46562 10.3521 6.31306 10.2933 6.15564 10.251C6.1211 10.2492 6.08656 10.2544 6.05405 10.2662C6.02154 10.278 5.99171 10.2962 5.9663 10.3196C5.9409 10.3431 5.92043 10.3714 5.9061 10.4029C5.89177 10.4344 5.88386 10.4684 5.88284 10.503C5.88833 10.9853 6.01595 11.4584 6.25377 11.8781C6.49159 12.2978 6.83187 12.6504 7.24284 12.903C7.18287 12.8903 7.12224 12.8809 7.06124 12.875C7.00425 12.8766 6.95004 12.8999 6.90972 12.9402C6.86941 12.9806 6.84605 13.0348 6.84444 13.0918C6.84538 13.119 6.85023 13.1459 6.85884 13.1718C7.00793 13.6351 7.27449 14.052 7.63255 14.3817C7.99062 14.7115 8.42798 14.9429 8.90204 15.0534C8.11345 15.54 7.20469 15.7968 6.27804 15.795C6.06844 15.795 5.85804 15.7598 5.65564 15.7598C5.59636 15.7602 5.53963 15.7839 5.49771 15.8258C5.45579 15.8677 5.43206 15.9245 5.43164 15.9838C5.43314 16.0212 5.44341 16.0578 5.46161 16.0906C5.47981 16.1234 5.50544 16.1515 5.53644 16.1726C5.73034 16.3041 5.93385 16.421 6.14524 16.5222C7.22567 17.0826 8.4249 17.3753 9.64204 17.3758C11.1028 17.4033 12.539 16.9983 13.7702 16.2117C15.0013 15.4251 15.9724 14.292 16.5612 12.955C17.0292 11.9535 17.2683 10.8604 17.2612 9.75495V9.52375C17.7559 9.16027 18.1801 8.70971 18.5132 8.19415C18.5392 8.15664 18.5539 8.11252 18.5556 8.06695Z" fill="#44FFB2"/>
</g>
<defs>
<clipPath id="clip0">
<rect width="24" height="24" fill="white"/>
</clipPath>
</defs>
</svg>
