<svg width="24" height="24" viewBox="0 0 24 24" fill="none" xmlns="http://www.w3.org/2000/svg">
<g clip-path="url(#clip0)">
<path d="M12.0004 23.6004C18.4069 23.6004 23.6004 18.4069 23.6004 12.0004C23.6004 5.59389 18.4069 0.400391 12.0004 0.400391C5.59389 0.400391 0.400391 5.59389 0.400391 12.0004C0.400391 18.4069 5.59389 23.6004 12.0004 23.6004Z" stroke="#44FFB2"/>
<path d="M9.75772 17.0838L9.96812 13.8382L15.7537 8.53336C15.8737 8.41336 15.8836 8.33576 15.7833 8.30056C15.638 8.2718 15.4872 8.30048 15.3625 8.38056L8.20653 12.9838L5.12573 11.9902C4.78493 11.8798 4.62226 11.7294 4.63773 11.539C4.65319 11.3486 4.86653 11.1635 5.27773 10.9838L17.3129 6.26376C17.4254 6.20105 17.5546 6.17505 17.6825 6.18939C17.8105 6.20374 17.9308 6.25771 18.0265 6.34376C18.1266 6.47312 18.1921 6.62576 18.217 6.78738C18.2419 6.94899 18.2254 7.11429 18.1689 7.26776L16.1257 17.0846C16.1168 17.2177 16.0758 17.3467 16.0061 17.4606C15.9365 17.5744 15.8403 17.6697 15.7257 17.7382C15.6038 17.7771 15.4745 17.7872 15.348 17.7677C15.2215 17.7481 15.1013 17.6994 14.9969 17.6254L11.8713 15.2814L10.3689 16.7694C10.2939 16.8552 10.2081 16.931 10.1137 16.995C10.0051 17.0601 9.87949 17.0916 9.75292 17.0854L9.75772 17.0838Z" fill="#44FFB2"/>
</g>
<defs>
<clipPath id="clip0">
<rect width="24" height="24" fill="white"/>
</clipPath>
</defs>
</svg>
