<svg width="24" height="24" viewBox="0 0 24 24" fill="none" xmlns="http://www.w3.org/2000/svg">
<g clip-path="url(#clip0)">
<path d="M12.0004 23.6004C18.4069 23.6004 23.6004 18.4069 23.6004 12.0004C23.6004 5.59389 18.4069 0.400391 12.0004 0.400391C5.59389 0.400391 0.400391 5.59389 0.400391 12.0004C0.400391 18.4069 5.59389 23.6004 12.0004 23.6004Z" stroke="#44FFB2"/>
<path d="M12.4737 5.71334C9.02089 5.71334 6.67528 8.01254 6.67528 10.6421C6.61299 11.2676 6.74404 11.8971 7.05075 12.4457C7.35746 12.9943 7.82507 13.4356 8.39049 13.7101C8.44987 13.7384 8.51486 13.7529 8.58063 13.7526C8.64639 13.7523 8.71124 13.7372 8.77035 13.7083C8.82947 13.6795 8.88132 13.6377 8.92206 13.5861C8.9628 13.5345 8.99139 13.4743 9.00569 13.4101L9.16568 12.8029C9.19583 12.721 9.20431 12.6326 9.19029 12.5464C9.17628 12.4602 9.14025 12.3791 9.08569 12.3109L9.01609 12.2261C8.68604 11.8426 8.51442 11.3477 8.53609 10.8421C8.53829 10.3656 8.63764 9.89442 8.82807 9.45753C9.01851 9.02065 9.29603 8.62718 9.64367 8.30117C9.99132 7.97517 10.4018 7.72347 10.85 7.56146C11.2982 7.39946 11.7747 7.33054 12.2505 7.35894C14.1961 7.35894 15.3649 8.45894 15.3649 10.1117C15.3649 12.3109 14.3649 13.9949 13.0345 13.9949C12.8729 14.0081 12.7105 13.9829 12.5605 13.9213C12.4105 13.8597 12.2772 13.7635 12.1715 13.6405C12.0658 13.5176 11.9907 13.3714 11.9522 13.2138C11.9138 13.0563 11.9132 12.8919 11.9505 12.7341C11.9889 12.5741 12.0353 12.4037 12.0969 12.2109L12.4121 11.1957C12.5551 10.8085 12.6361 10.4011 12.6521 9.98854C12.6686 9.81931 12.6488 9.6485 12.5939 9.48758C12.539 9.32666 12.4503 9.17935 12.3337 9.05553C12.2172 8.93172 12.0755 8.83427 11.9182 8.76973C11.7609 8.70519 11.5916 8.67505 11.4217 8.68134C10.4681 8.68134 9.73769 9.61974 9.73769 10.8189C9.73627 11.1311 9.7802 11.4418 9.86809 11.7413L9.90649 11.8565C9.92942 11.9259 9.95262 11.9875 9.97608 12.0413L8.97608 16.1325C8.92394 16.3529 8.88547 16.5762 8.86089 16.8013C8.80324 17.4138 8.81101 18.0306 8.88409 18.6413L8.92248 18.9613C8.93048 19.0077 8.93769 19.0533 8.94569 19.0917C8.95392 19.1444 8.97742 19.1934 9.01329 19.2328C9.04915 19.2722 9.0958 19.3002 9.14743 19.3133C9.19906 19.3265 9.25341 19.3241 9.30373 19.3066C9.35405 19.2891 9.39812 19.2573 9.43049 19.2149L9.62248 18.9749L9.70249 18.8749C9.87929 18.6349 10.0489 18.3901 10.2097 18.1293C10.4443 17.7581 10.6402 17.3637 10.7945 16.9525L10.8865 16.6677L11.3553 14.9077L11.4089 14.9693C11.9042 15.4106 12.5447 15.6541 13.2081 15.6533C15.8073 15.6533 17.6297 13.3845 17.6297 10.2629C17.6297 7.75574 15.4305 5.71094 12.4697 5.71094L12.4737 5.71334Z" fill="#44FFB2"/>
</g>
<defs>
<clipPath id="clip0">
<rect width="24" height="24" fill="white"/>
</clipPath>
</defs>
</svg>
