<svg width="24" height="24" viewBox="0 0 24 24" fill="none" xmlns="http://www.w3.org/2000/svg">
<g clip-path="url(#clip0)">
<path d="M12.0004 23.6004C18.4069 23.6004 23.6004 18.4069 23.6004 12.0004C23.6004 5.59389 18.4069 0.400391 12.0004 0.400391C5.59389 0.400391 0.400391 5.59389 0.400391 12.0004C0.400391 18.4069 5.59389 23.6004 12.0004 23.6004Z" stroke="#44FFB2"/>
<path d="M11.2321 18.5605C12.6255 18.5052 13.9867 18.1244 15.2065 17.4486C15.5161 17.2806 15.8065 17.0805 16.0977 16.8829C16.1416 16.863 16.181 16.8341 16.2132 16.7981C16.2454 16.7622 16.2698 16.7199 16.2848 16.674C16.2999 16.6282 16.3052 16.5797 16.3006 16.5317C16.2959 16.4836 16.2813 16.4371 16.2577 16.3949C16.2338 16.3482 16.2006 16.3068 16.16 16.2734C16.1195 16.24 16.0725 16.2153 16.022 16.2008C15.9715 16.1863 15.9186 16.1824 15.8665 16.1892C15.8145 16.1961 15.7643 16.2135 15.7193 16.2406C15.6769 16.2566 15.6393 16.2781 15.5937 16.2909C14.9273 16.5173 14.2705 16.7814 13.5937 16.963C11.8655 17.4945 10.0059 17.4048 8.3369 16.7094C7.4777 16.331 6.6569 15.8741 5.8161 15.4533C5.6425 15.3653 5.4697 15.307 5.3361 15.499C5.2025 15.691 5.30969 15.8405 5.46169 15.9605C5.97929 16.3709 6.4809 16.8006 7.0193 17.1822C8.23851 18.0832 9.71604 18.5667 11.2321 18.5605Z" fill="#44FFB2"/>
<path d="M16.8102 15.734C16.8006 15.864 16.7819 15.9931 16.7542 16.1204C16.6526 16.4564 16.5303 16.7868 16.4423 17.1284C16.4305 17.1818 16.431 17.2371 16.4439 17.2902C16.4568 17.3433 16.4817 17.3928 16.5166 17.4348C16.6178 17.4786 16.7312 17.4851 16.8366 17.4532C16.8982 17.4428 16.9542 17.3732 17.0022 17.3172C17.4726 16.8049 17.7301 16.1326 17.7222 15.4372C17.7291 15.3807 17.7246 15.3234 17.7088 15.2687C17.6931 15.2139 17.6666 15.1629 17.6307 15.1187C17.5949 15.0744 17.5506 15.0378 17.5003 15.011C17.4501 14.9843 17.395 14.9679 17.3383 14.9628C16.6887 14.8113 16.0062 14.9014 15.4183 15.2164C15.2367 15.318 15.0183 15.43 15.1143 15.6884C15.2103 15.9468 15.4446 15.8324 15.6342 15.8188C16.0102 15.79 16.3862 15.766 16.8102 15.734ZM14.8903 13.4268C14.5472 13.012 14.3704 12.4846 14.3942 11.9468C14.4126 10.8796 14.4102 9.81081 14.3942 8.74121C14.4443 8.19214 14.2936 7.64353 13.9699 7.19718C13.6463 6.75082 13.1717 6.43703 12.6342 6.31401C11.6848 6.01766 10.6656 6.03168 9.72465 6.35401C9.25132 6.48821 8.82346 6.74879 8.48703 7.10777C8.1506 7.46675 7.91828 7.91058 7.81503 8.39161C7.73503 8.73801 7.79105 8.83161 8.14865 8.87961C8.53505 8.93001 8.92224 8.97002 9.30624 9.01801C9.66624 9.06362 9.72225 9.03161 9.83425 8.68441C9.88925 8.50707 9.98216 8.34382 10.1066 8.20598C10.231 8.06814 10.3839 7.95902 10.5547 7.88618C10.7255 7.81334 10.9101 7.77853 11.0956 7.78416C11.2812 7.7898 11.4634 7.83574 11.6294 7.91881C11.8227 8.01215 11.9746 8.17373 12.0559 8.37241C12.1374 8.76814 12.1908 9.16914 12.2158 9.57241C12.0454 9.58841 11.9575 9.59082 11.8695 9.60442C11.2159 9.69482 10.5542 9.74281 9.91184 9.89001C9.19625 9.98584 8.54592 10.356 8.09811 10.9223C7.65031 11.4886 7.44008 12.2068 7.51183 12.9252C7.49964 13.4153 7.65624 13.8948 7.95539 14.2832C8.25454 14.6716 8.67807 14.9454 9.15505 15.0588C9.67699 15.2059 10.2282 15.2149 10.7547 15.0849C11.2811 14.9549 11.7648 14.6904 12.1582 14.3172C12.2622 14.2188 12.3662 14.1172 12.4566 14.0316C12.7262 14.3356 12.9766 14.6452 13.2566 14.9252C13.4806 15.1516 13.6246 15.1436 13.8702 14.9356C14.1958 14.6612 14.5158 14.3812 14.8358 14.1004C15.1558 13.8196 15.1559 13.7508 14.8975 13.4284L14.8903 13.4268ZM11.8502 12.8852C11.6918 13.1733 11.4369 13.3962 11.1302 13.5148C10.9962 13.5722 10.8506 13.5974 10.705 13.5882C10.5595 13.5791 10.4182 13.536 10.2924 13.4623C10.1665 13.3886 10.0598 13.2864 9.98061 13.164C9.90146 13.0415 9.85215 12.9022 9.83664 12.7572C9.78442 12.5609 9.77403 12.3558 9.80612 12.1552C9.83822 11.9546 9.91208 11.763 10.0229 11.5928C10.1338 11.4226 10.2792 11.2775 10.4497 11.1671C10.6202 11.0566 10.812 10.9832 11.0126 10.9516C11.3948 10.8825 11.7804 10.8344 12.1678 10.8076C12.2689 11.5167 12.1581 12.2397 11.8494 12.886L11.8502 12.8852Z" fill="#44FFB2"/>
</g>
<defs>
<clipPath id="clip0">
<rect width="24" height="24" fill="white"/>
</clipPath>
</defs>
</svg>
