<svg width="24" height="24" viewBox="0 0 24 24" fill="none" xmlns="http://www.w3.org/2000/svg">
<g clip-path="url(#clip0)">
<path d="M12.0004 23.6004C18.4069 23.6004 23.6004 18.4069 23.6004 12.0004C23.6004 5.59389 18.4069 0.400391 12.0004 0.400391C5.59389 0.400391 0.400391 5.59389 0.400391 12.0004C0.400391 18.4069 5.59389 23.6004 12.0004 23.6004Z" stroke="#44FFB2"/>
<path d="M9.98618 9.46246V16.1153C9.98874 16.2008 9.96378 16.2849 9.91498 16.3553C9.89149 16.3878 9.86022 16.4139 9.82402 16.4313C9.78782 16.4486 9.74786 16.4566 9.70778 16.4545C9.64266 16.4542 9.57852 16.4386 9.52058 16.4089L6.88298 15.0913C6.79759 15.0486 6.72684 14.9815 6.67978 14.8985C6.62889 14.8197 6.60117 14.7282 6.59978 14.6345V8.16886C6.59752 8.10016 6.61743 8.03255 6.65658 7.97606C6.67506 7.94989 6.69986 7.92882 6.72868 7.91483C6.7575 7.90084 6.78939 7.89438 6.82138 7.89606C6.90948 7.90708 6.99441 7.93593 7.07098 7.98086L9.96938 9.43286C9.97853 9.44024 9.98453 9.45082 9.98618 9.46246ZM10.3494 10.0353L13.3782 14.9473L10.3486 13.4385L10.3494 10.0353ZM16.7646 10.1377V16.1153C16.7681 16.1992 16.7395 16.2813 16.6846 16.3449C16.6573 16.3743 16.6239 16.3974 16.5867 16.4126C16.5495 16.4278 16.5095 16.4347 16.4694 16.4329C16.3746 16.4326 16.2816 16.4072 16.1998 16.3593L13.6982 15.1113L16.7646 10.1377ZM16.7478 9.45686C16.7478 9.46806 16.2627 10.2611 15.2926 11.8361C14.3224 13.411 13.7542 14.3326 13.5878 14.6009L11.3758 11.0009L13.2158 8.01206C13.2453 7.96066 13.2886 7.91848 13.3407 7.89023C13.3928 7.86198 13.4518 7.84876 13.511 7.85206C13.5621 7.85179 13.6125 7.86357 13.6582 7.88646L16.727 9.41766C16.7342 9.42106 16.74 9.42675 16.7437 9.43384C16.7473 9.44094 16.7485 9.44904 16.747 9.45686H16.7478Z" fill="#44FFB2"/>
</g>
<defs>
<clipPath id="clip0">
<rect width="24" height="24" fill="white"/>
</clipPath>
</defs>
</svg>
