<svg width="24" height="24" viewBox="0 0 24 24" fill="none" xmlns="http://www.w3.org/2000/svg">
<g clip-path="url(#clip0)">
<path d="M12.0004 23.6004C18.4069 23.6004 23.6004 18.4069 23.6004 12.0004C23.6004 5.59389 18.4069 0.400391 12.0004 0.400391C5.59389 0.400391 0.400391 5.59389 0.400391 12.0004C0.400391 18.4069 5.59389 23.6004 12.0004 23.6004Z" stroke="#44FFB2"/>
<path d="M16.481 16.3616H7.81783C7.52705 16.3625 7.23898 16.3058 6.97026 16.1947C6.70154 16.0836 6.4575 15.9204 6.25223 15.7144C6.04278 15.5044 5.87737 15.2548 5.76568 14.98C5.654 14.7053 5.59829 14.411 5.60183 14.1144V9.43922C5.59727 9.1469 5.65087 8.85658 5.75952 8.58516C5.86817 8.31374 6.02969 8.06663 6.2347 7.85819C6.43971 7.64976 6.68412 7.48416 6.9537 7.37103C7.22329 7.25791 7.51267 7.1995 7.80503 7.19922H16.4906C16.7776 7.19898 17.0617 7.25539 17.3268 7.36522C17.5919 7.47504 17.8327 7.63612 18.0354 7.83922C18.2466 8.04809 18.4134 8.2975 18.5257 8.57245C18.638 8.84741 18.6936 9.14224 18.689 9.43922V14.1192C18.6926 14.4118 18.6382 14.7022 18.529 14.9736C18.4197 15.2451 18.2577 15.4922 18.0524 15.7007C17.8471 15.9092 17.6026 16.0749 17.3329 16.1884C17.0631 16.3018 16.7736 16.3607 16.481 16.3616ZM10.3954 9.26402V14.2976L14.6834 11.7832L10.3954 9.26402Z" fill="#44FFB2"/>
</g>
<defs>
<clipPath id="clip0">
<rect width="24" height="24" fill="white"/>
</clipPath>
</defs>
</svg>
