<svg width="24" height="24" viewBox="0 0 24 24" fill="none" xmlns="http://www.w3.org/2000/svg">
<g clip-path="url(#clip0)">
<path d="M12.0004 23.6004C18.4069 23.6004 23.6004 18.4069 23.6004 12.0004C23.6004 5.59389 18.4069 0.400391 12.0004 0.400391C5.59389 0.400391 0.400391 5.59389 0.400391 12.0004C0.400391 18.4069 5.59389 23.6004 12.0004 23.6004Z" stroke="#44FFB2"/>
<path d="M6.21548 10.7109C6.21548 10.7325 6.20908 10.7541 6.20508 10.7749C6.21628 10.7949 6.22588 10.8149 6.23708 10.8341L6.21548 10.7109ZM17.7835 12.9229C17.7875 12.9013 17.7899 12.8789 17.7939 12.8573C17.7827 12.8373 17.7731 12.8173 17.7619 12.7973L17.7827 12.9229H17.7835ZM12.9755 17.5533L13.0355 17.5861L13.1011 17.5757L12.9755 17.5533Z" fill="#44FFB2"/>
<path d="M14.76 18.0388H14.752C14.1512 18.038 13.5607 17.8823 13.0376 17.5868L13.0704 17.5812L13.1032 17.5756L12.9768 17.5532L13.0112 17.5724L13.0368 17.5868C12.697 17.6476 12.3525 17.6786 12.0072 17.6796H11.9944C10.8384 17.6765 9.70872 17.3336 8.74603 16.6936C7.78334 16.0535 7.0301 15.1445 6.58001 14.0796C6.27339 13.3553 6.11586 12.5766 6.11681 11.79C6.11745 11.4505 6.14715 11.1117 6.20561 10.7772C6.21044 10.7842 6.21446 10.7917 6.21761 10.7996C6.22401 10.8124 6.23041 10.8252 6.23761 10.8372L6.21681 10.7108L6.21201 10.7404C6.21201 10.7516 6.21201 10.762 6.20721 10.7724C5.83867 10.1113 5.69613 9.34784 5.80125 8.59825C5.90638 7.84865 6.25342 7.15389 6.78961 6.61962C7.11043 6.2955 7.4925 6.03842 7.91358 5.86331C8.33467 5.6882 8.78637 5.59856 9.24241 5.59962H9.25281C9.82266 5.60088 10.3836 5.74092 10.8872 6.00762L10.8248 6.02042L10.9488 6.03962L10.9152 6.02202L10.8872 6.00762C11.2564 5.93738 11.6314 5.90229 12.0072 5.90282H12.0184C13.5785 5.9043 15.074 6.52534 16.1763 7.62936C17.2785 8.73338 17.8971 10.23 17.896 11.79C17.8956 12.1472 17.8629 12.5035 17.7984 12.8548L17.7864 12.8356V12.8316L17.7632 12.7996L17.7848 12.9252C17.7848 12.914 17.7848 12.9036 17.7904 12.8924C17.796 12.8812 17.7904 12.8708 17.7952 12.8604C18.165 13.5223 18.3085 14.2868 18.204 15.0377C18.0994 15.7885 17.7525 16.4848 17.216 17.0204C16.8947 17.3446 16.512 17.6016 16.0904 17.7765C15.6687 17.9513 15.2165 18.0405 14.76 18.0388ZM9.69521 12.9244C9.60449 12.9199 9.51381 12.9341 9.42883 12.9662C9.34385 12.9983 9.26639 13.0475 9.2013 13.1109C9.13622 13.1743 9.08489 13.2504 9.05053 13.3345C9.01617 13.4185 8.99952 13.5088 9.00161 13.5996C9.00161 14.2956 9.82321 15.3988 12.0296 15.3988C12.8253 15.4436 13.6127 15.2181 14.264 14.7588C14.5028 14.5666 14.6939 14.3219 14.8226 14.0436C14.9512 13.7654 15.0139 13.4612 15.0056 13.1548C15.0056 12.0764 14.3656 11.3884 13.1152 11.1084L11.7376 10.7996C11.1672 10.67 10.6112 10.5044 10.6112 10.0292C10.6112 9.51082 11.0656 9.18842 11.7976 9.18842C12.0826 9.16598 12.3687 9.21504 12.6299 9.33112C12.8911 9.44721 13.1193 9.62667 13.2936 9.85322C13.366 9.96645 13.4641 10.061 13.5799 10.1293C13.6956 10.1975 13.8259 10.2375 13.96 10.246C14.052 10.2563 14.1452 10.2476 14.2338 10.2206C14.3223 10.1935 14.4044 10.1486 14.475 10.0887C14.5456 10.0288 14.6031 9.95503 14.6442 9.87202C14.6852 9.78901 14.7088 9.69849 14.7136 9.60602C14.7136 8.67162 13.2056 7.94602 11.9088 7.94602C11.22 7.92621 10.5392 8.09732 9.94161 8.44042C9.65348 8.6141 9.41658 8.86112 9.2551 9.15626C9.09361 9.45141 9.01332 9.78411 9.02241 10.1204C9.02241 10.7652 9.20561 11.6692 10.792 12.0676L12.6536 12.5316C13.12 12.6468 13.3568 12.8964 13.3568 13.2732C13.3568 13.7404 12.9008 14.2132 12.0296 14.2132C11.7196 14.2379 11.4087 14.1768 11.131 14.0367C10.8534 13.8966 10.6196 13.6829 10.4552 13.4188C10.2472 13.1532 10.0736 12.9244 9.69521 12.9244Z" fill="#44FFB2"/>
</g>
<defs>
<clipPath id="clip0">
<rect width="24" height="24" fill="white"/>
</clipPath>
</defs>
</svg>
