<svg width="24" height="24" viewBox="0 0 24 24" fill="none" xmlns="http://www.w3.org/2000/svg">
<g clip-path="url(#clip0)">
<path d="M12.0004 23.6004C18.4069 23.6004 23.6004 18.4069 23.6004 12.0004C23.6004 5.59389 18.4069 0.400391 12.0004 0.400391C5.59389 0.400391 0.400391 5.59389 0.400391 12.0004C0.400391 18.4069 5.59389 23.6004 12.0004 23.6004Z" stroke="#44FFB2"/>
<path d="M9.57763 6.70473L6.11523 8.96393L8.50963 10.8839L12.0008 8.72393L9.57763 6.70473ZM6.11523 12.8039L9.57763 15.0647L12.0008 13.0423L8.50963 10.8839L6.11523 12.8039ZM12.0008 13.0439L14.424 15.0663L17.8864 12.8039L15.492 10.8839L12.0008 13.0439ZM17.8864 8.96393L14.424 6.70312L12.0008 8.72393L15.492 10.8839L17.8864 8.96393Z" fill="#44FFB2"/>
<path d="M12.0075 13.4727L9.57711 15.4886L8.53711 14.8094V15.571L12.0075 17.651L15.4779 15.571V14.8094L14.4379 15.4886L12.0075 13.4727Z" fill="#44FFB2"/>
</g>
<defs>
<clipPath id="clip0">
<rect width="24" height="24" fill="white"/>
</clipPath>
</defs>
</svg>
